<svg xmlns="http://www.w3.org/2000/svg" xmlns:xlink="http://www.w3.org/1999/xlink" width="40" zoomAndPan="magnify" viewBox="0 0 30 30.000001" height="40" preserveAspectRatio="xMidYMid meet" version="1.0"><defs><clipPath id="id1"><path d="M 1.515625 3.0625 L 28.371094 3.0625 L 28.371094 26.289062 L 1.515625 26.289062 Z M 1.515625 3.0625 " clip-rule="nonzero"/></clipPath></defs><g clip-path="url(#id1)"><path fill="#040606" d="M 27.0625 21.988281 L 24.871094 20.457031 L 25.289062 19.921875 L 27.519531 21.398438 Z M 26.078125 23.257812 L 23.988281 21.601562 L 24.640625 20.757812 L 26.828125 22.289062 Z M 25.1875 24.410156 L 23.195312 22.625 L 23.753906 21.902344 L 25.847656 23.558594 Z M 24.40625 25.417969 L 22.492188 23.535156 L 22.960938 22.925781 L 24.953125 24.710938 Z M 24.25 20.027344 L 21.769531 18.292969 L 22.128906 17.828125 L 24.65625 19.503906 Z M 23.394531 21.132812 L 21.023438 19.253906 L 21.535156 18.59375 L 24.019531 20.324219 Z M 22.628906 22.121094 L 20.371094 20.097656 L 20.792969 19.554688 L 23.164062 21.429688 Z M 21.949219 23 L 19.777344 20.867188 L 20.140625 20.398438 L 22.398438 22.417969 Z M 21.148438 17.859375 L 19.179688 16.480469 L 19.488281 16.078125 L 21.496094 17.410156 Z M 20.433594 18.785156 L 18.550781 17.292969 L 18.945312 16.78125 L 20.917969 18.160156 Z M 19.808594 19.589844 L 18.015625 17.984375 L 18.320312 17.59375 L 20.199219 19.082031 Z M 19.234375 20.332031 L 17.511719 18.636719 L 17.78125 18.285156 L 19.574219 19.890625 Z M 9.710938 21.503906 L 12.207031 18.882812 L 13.125 19.609375 Z M 9.519531 21.421875 L 10.523438 17.550781 L 12.054688 18.761719 Z M 12.191406 10.945312 L 10.398438 9.339844 L 10.746094 8.890625 L 12.503906 10.542969 Z M 11.5625 11.757812 L 9.683594 10.265625 L 10.167969 9.640625 L 11.960938 11.246094 Z M 11.027344 12.449219 L 9.058594 11.074219 L 9.449219 10.566406 L 11.332031 12.054688 Z M 10.523438 13.101562 L 8.484375 11.8125 L 8.824219 11.375 L 10.796875 12.75 Z M 9.835938 8.835938 L 7.578125 6.8125 L 7.980469 6.289062 L 10.195312 8.371094 Z M 9.089844 9.796875 L 6.71875 7.917969 L 7.34375 7.113281 L 9.601562 9.132812 Z M 8.4375 10.640625 L 5.957031 8.90625 L 6.488281 8.21875 L 8.859375 10.09375 Z M 7.839844 11.40625 L 5.273438 9.785156 L 5.722656 9.207031 L 8.203125 10.941406 Z M 7.011719 6.304688 L 5.019531 4.523438 L 5.476562 3.933594 L 7.429688 5.769531 Z M 6.128906 7.449219 L 4.035156 5.792969 L 4.789062 4.824219 L 6.78125 6.605469 Z M 5.335938 8.472656 L 3.144531 6.945312 L 3.804688 6.089844 L 5.894531 7.75 Z M 4.632812 9.382812 L 2.363281 7.953125 L 2.914062 7.242188 L 5.101562 8.773438 Z M 25.632812 19.476562 L 24.996094 19.0625 L 22.449219 17.414062 L 21.8125 17 L 19.304688 15.375 L 18.703125 16.152344 L 18.472656 16.449219 L 18.339844 16.621094 L 18.101562 16.925781 L 16.832031 15.921875 C 17.390625 14.960938 17.171875 13.710938 16.285156 13.003906 C 15.394531 12.296875 14.140625 12.386719 13.351562 13.160156 L 12.023438 12.109375 L 12.257812 11.804688 L 12.390625 11.632812 L 12.625 11.332031 L 13.226562 10.554688 L 11.0625 8.480469 L 10.515625 7.953125 L 8.324219 5.847656 L 7.773438 5.324219 L 5.417969 3.0625 L 4.589844 4.136719 L 4.355469 4.4375 L 3.582031 5.433594 L 3.351562 5.734375 L 2.671875 6.613281 L 2.4375 6.914062 L 1.515625 8.101562 L 4.296875 9.8125 L 4.945312 10.207031 L 7.539062 11.800781 L 8.1875 12.195312 L 10.742188 13.765625 L 11.269531 13.082031 L 11.503906 12.78125 L 11.785156 12.414062 L 13.09375 13.453125 L 12.210938 14.597656 C 12.144531 14.683594 12.085938 14.777344 12.03125 14.871094 C 9.519531 13.410156 7.152344 13.070312 6.285156 14.191406 L 10.363281 17.421875 L 9.304688 21.503906 C 9.261719 21.519531 9.226562 21.542969 9.199219 21.582031 C 9.132812 21.683594 9.15625 21.824219 9.257812 21.890625 C 9.359375 21.960938 9.496094 21.933594 9.566406 21.832031 C 9.578125 21.8125 9.585938 21.792969 9.589844 21.773438 L 13.273438 19.730469 L 17.539062 23.109375 C 18.40625 21.988281 17.511719 19.742188 15.507812 17.625 C 15.585938 17.550781 15.660156 17.472656 15.730469 17.386719 L 16.613281 16.242188 L 17.867188 17.234375 L 17.582031 17.597656 L 17.351562 17.898438 L 16.820312 18.582031 L 18.9375 20.714844 L 19.472656 21.257812 L 21.621094 23.421875 L 22.160156 23.964844 L 24.464844 26.289062 L 25.386719 25.097656 L 25.617188 24.796875 L 26.300781 23.917969 L 26.53125 23.617188 L 27.304688 22.621094 L 27.535156 22.320312 L 28.367188 21.246094 L 25.632812 19.476562 " fill-opacity="1" fill-rule="nonzero"/></g></svg>