<svg xmlns="http://www.w3.org/2000/svg" xmlns:xlink="http://www.w3.org/1999/xlink" width="40" zoomAndPan="magnify" viewBox="0 0 30 30.000001" height="40" preserveAspectRatio="xMidYMid meet" version="1.0"><defs><clipPath id="id1"><path d="M 1.789062 1.304688 L 27.917969 1.304688 L 27.917969 27.433594 L 1.789062 27.433594 Z M 1.789062 1.304688 " clip-rule="nonzero"/></clipPath></defs><g clip-path="url(#id1)"><path fill="#000" d="M 14.855469 26.726562 C 8.042969 26.726562 2.5 21.183594 2.5 14.371094 C 2.5 9.871094 4.917969 5.925781 8.527344 3.765625 C 8.664062 3.867188 8.835938 3.933594 9.054688 3.933594 C 9.054688 3.933594 9.292969 3.933594 7.777344 5.117188 C 6.261719 6.300781 6.40625 7.941406 6.878906 6.910156 C 7.351562 5.875 7.777344 6.253906 7.019531 7.722656 C 6.261719 9.1875 7.417969 8.714844 7.808594 9.613281 C 8.203125 10.511719 8.34375 9.425781 8.535156 11.128906 C 8.535156 11.128906 9.007812 11.699219 9.859375 11.414062 C 10.710938 11.128906 9.71875 12.167969 8.820312 13.023438 C 7.917969 13.875 8.203125 14.15625 8.675781 14.679688 C 9.148438 15.199219 9.339844 15.625 8.914062 16.195312 C 8.488281 16.761719 9.578125 16.949219 9.859375 17.28125 C 10.144531 17.613281 10.097656 18.703125 9.433594 19.175781 C 8.773438 19.648438 9.765625 20.691406 9.621094 22.160156 C 9.480469 23.625 9.515625 24.242188 10.183594 24.335938 C 10.855469 24.429688 10.097656 23.058594 10.378906 22.441406 C 10.664062 21.828125 10.996094 22.867188 11.660156 21.210938 C 11.660156 21.210938 12.84375 21.496094 13.363281 19.695312 C 13.363281 19.695312 14.402344 19.554688 14.59375 18.988281 C 14.785156 18.417969 14.546875 18.039062 16.058594 16.808594 C 17.574219 15.578125 15.019531 14.632812 13.648438 14.585938 C 13.648438 14.585938 13.144531 14.789062 14.027344 13.210938 C 14.410156 12.523438 13.269531 12.691406 12.984375 12.078125 C 12.699219 11.460938 12.039062 10.75 10.710938 10.890625 C 9.386719 11.035156 9.007812 11.507812 8.960938 10.703125 C 8.914062 9.898438 9.527344 9.519531 8.867188 9.425781 C 8.203125 9.332031 8.535156 9.28125 9.246094 8.621094 C 9.246094 8.621094 8.820312 8.335938 8.394531 8.761719 C 7.964844 9.1875 7.210938 8.527344 8.109375 7.578125 C 9.007812 6.632812 10.429688 5.921875 10.332031 7.722656 C 10.238281 9.519531 10.902344 6.910156 10.902344 6.910156 C 10.902344 6.910156 11.894531 5.636719 13.128906 5.542969 C 14.355469 5.449219 13.601562 5.402344 13.601562 4.976562 C 13.601562 4.550781 14.167969 5.6875 14.855469 5.402344 C 15.539062 5.117188 14.121094 5.023438 14.261719 4.550781 C 14.402344 4.078125 15.210938 4.21875 15.539062 4.835938 C 15.871094 5.449219 16.25 4.503906 15.398438 3.507812 C 14.546875 2.515625 14.6875 3.128906 13.882812 3.554688 C 13.078125 3.980469 13.410156 4.21875 13.269531 3.507812 C 13.128906 2.796875 13.078125 3.554688 12.699219 3.175781 C 12.320312 2.796875 13.375 2.972656 13.929688 3.035156 C 14.484375 3.09375 14.308594 2.703125 14.308594 2.703125 L 14.855469 2.46875 C 14.855469 2.46875 15.210938 2.988281 15.636719 2.890625 C 16.058594 2.796875 15.351562 2.132812 15.777344 2.230469 C 16.203125 2.324219 16.769531 1.945312 16.816406 2.515625 C 16.867188 3.082031 16.488281 3.839844 18.050781 2.988281 C 18.367188 2.816406 18.578125 2.703125 18.71875 2.636719 C 18.828125 2.671875 18.929688 2.707031 19.035156 2.746094 C 19.046875 2.859375 19.082031 3.007812 19.28125 3.128906 C 19.894531 3.507812 19.707031 3.175781 20.511719 3.648438 C 21.316406 4.125 20.792969 4.644531 21.410156 4.738281 C 22.023438 4.835938 22.59375 5.6875 22.121094 5.734375 C 21.648438 5.78125 21.597656 5.214844 20.890625 5.117188 C 20.179688 5.023438 21.175781 5.351562 21.648438 5.78125 C 22.121094 6.207031 22.121094 6.710938 21.648438 6.910156 C 21.175781 7.105469 21.523438 8.195312 22.296875 8.050781 C 23.066406 7.910156 22.78125 7.105469 23.207031 7.296875 C 23.636719 7.484375 23.492188 7.957031 24.203125 8.242188 C 24.914062 8.527344 24.109375 8.902344 24.960938 8.953125 C 25.8125 9 26.238281 9.332031 25.480469 9.660156 C 24.722656 9.996094 25.101562 10.277344 24.4375 9.472656 C 23.777344 8.667969 23.84375 9.4375 23.777344 8.667969 C 23.710938 7.898438 22.640625 8.621094 22.074219 8.714844 C 21.503906 8.808594 21.976562 9.378906 21.457031 9.472656 C 20.933594 9.566406 20.699219 9.425781 20.839844 10.65625 C 20.984375 11.886719 20.652344 12.167969 20.082031 12.167969 C 19.515625 12.167969 20.558594 12.832031 20.839844 13.683594 C 21.125 14.535156 21.175781 15.058594 22.40625 14.726562 C 23.636719 14.394531 23.257812 14.394531 23.398438 15.058594 C 23.539062 15.722656 24.0625 14.679688 24.15625 15.34375 C 24.25 16.003906 22.972656 16.148438 23.679688 16.570312 C 24.390625 16.996094 23.871094 17.992188 23.539062 18.230469 C 23.207031 18.464844 23.445312 19.316406 22.734375 19.695312 C 22.023438 20.074219 23.066406 20.738281 22.640625 21.164062 C 22.214844 21.589844 21.078125 22.109375 21.503906 23.152344 C 21.933594 24.191406 21.933594 23.578125 22.832031 22.820312 C 23.730469 22.0625 24.488281 20.785156 24.914062 20.832031 C 25.066406 20.851562 25.140625 20.96875 25.230469 21.070312 C 23.027344 24.472656 19.199219 26.726562 14.855469 26.726562 Z M 14.855469 1.308594 C 7.648438 1.308594 1.789062 7.167969 1.789062 14.371094 C 1.789062 21.574219 7.648438 27.4375 14.855469 27.4375 C 22.058594 27.4375 27.917969 21.574219 27.917969 14.371094 C 27.917969 7.167969 22.058594 1.308594 14.855469 1.308594 " fill-opacity="1" fill-rule="nonzero"/></g></svg>