<svg xmlns="http://www.w3.org/2000/svg" xmlns:xlink="http://www.w3.org/1999/xlink" width="40" zoomAndPan="magnify" viewBox="0 0 30 30.000001" height="40" preserveAspectRatio="xMidYMid meet" version="1.0"><defs><clipPath id="id1"><path d="M 1.425781 3.851562 L 28.28125 3.851562 L 28.28125 19 L 1.425781 19 Z M 1.425781 3.851562 " clip-rule="nonzero"/></clipPath><clipPath id="id2"><path d="M 2 18 L 28 18 L 28 23.449219 L 2 23.449219 Z M 2 18 " clip-rule="nonzero"/></clipPath></defs><g clip-path="url(#id1)"><path fill="#000000" d="M 27.386719 7.425781 L 21.121094 7.425781 L 21.121094 6.535156 C 21.121094 6.179688 21.050781 5.839844 20.914062 5.515625 C 20.777344 5.1875 20.585938 4.898438 20.332031 4.648438 C 20.082031 4.398438 19.789062 4.207031 19.460938 4.070312 C 19.132812 3.933594 18.789062 3.867188 18.433594 3.867188 L 11.273438 3.867188 C 10.917969 3.867188 10.574219 3.933594 10.246094 4.070312 C 9.917969 4.207031 9.628906 4.398438 9.375 4.648438 C 9.125 4.898438 8.929688 5.1875 8.792969 5.515625 C 8.65625 5.839844 8.589844 6.179688 8.585938 6.535156 L 8.585938 7.425781 L 2.320312 7.425781 C 2.074219 7.425781 1.863281 7.511719 1.6875 7.683594 C 1.515625 7.859375 1.425781 8.066406 1.425781 8.3125 L 1.425781 13.652344 C 1.425781 13.941406 1.457031 14.230469 1.511719 14.519531 C 1.570312 14.804688 1.65625 15.082031 1.769531 15.351562 C 1.882812 15.621094 2.019531 15.878906 2.183594 16.121094 C 2.347656 16.363281 2.53125 16.585938 2.738281 16.792969 C 2.945312 17 3.171875 17.183594 3.417969 17.347656 C 3.660156 17.507812 3.917969 17.644531 4.191406 17.757812 C 4.460938 17.871094 4.742188 17.953125 5.03125 18.011719 C 5.316406 18.070312 5.609375 18.097656 5.902344 18.097656 L 13.957031 18.097656 L 13.957031 17.652344 C 13.957031 17.535156 13.976562 17.417969 14.019531 17.304688 C 14.066406 17.195312 14.128906 17.097656 14.214844 17.011719 C 14.296875 16.925781 14.394531 16.859375 14.507812 16.8125 C 14.617188 16.765625 14.734375 16.742188 14.855469 16.742188 C 14.972656 16.742188 15.089844 16.765625 15.203125 16.8125 C 15.3125 16.859375 15.410156 16.925781 15.496094 17.011719 C 15.578125 17.097656 15.644531 17.195312 15.6875 17.304688 C 15.730469 17.417969 15.75 17.535156 15.75 17.652344 L 15.75 18.097656 L 23.804688 18.097656 C 24.097656 18.097656 24.390625 18.070312 24.679688 18.011719 C 24.964844 17.953125 25.246094 17.871094 25.515625 17.757812 C 25.789062 17.644531 26.046875 17.507812 26.289062 17.347656 C 26.535156 17.183594 26.761719 17 26.96875 16.792969 C 27.175781 16.585938 27.363281 16.363281 27.527344 16.121094 C 27.6875 15.878906 27.828125 15.621094 27.9375 15.351562 C 28.050781 15.082031 28.136719 14.804688 28.195312 14.519531 C 28.253906 14.230469 28.28125 13.941406 28.28125 13.652344 L 28.28125 8.3125 C 28.28125 8.066406 28.195312 7.859375 28.019531 7.683594 C 27.84375 7.511719 27.632812 7.425781 27.386719 7.425781 Z M 10.378906 6.535156 C 10.378906 6.289062 10.464844 6.078125 10.640625 5.90625 C 10.816406 5.730469 11.027344 5.644531 11.273438 5.644531 L 18.433594 5.644531 C 18.679688 5.644531 18.890625 5.730469 19.066406 5.90625 C 19.242188 6.078125 19.328125 6.289062 19.328125 6.535156 L 19.328125 7.425781 L 10.378906 7.425781 Z M 10.378906 6.535156 " fill-opacity="1" fill-rule="nonzero"/></g><g clip-path="url(#id2)"><path fill="#000000" d="M 15.75 19.878906 L 15.75 20.324219 C 15.75 20.441406 15.730469 20.558594 15.6875 20.667969 C 15.644531 20.78125 15.578125 20.878906 15.496094 20.964844 C 15.410156 21.050781 15.3125 21.117188 15.203125 21.164062 C 15.089844 21.210938 14.972656 21.234375 14.855469 21.234375 C 14.734375 21.234375 14.617188 21.210938 14.507812 21.164062 C 14.394531 21.117188 14.296875 21.050781 14.214844 20.964844 C 14.128906 20.878906 14.066406 20.78125 14.019531 20.667969 C 13.976562 20.558594 13.957031 20.441406 13.957031 20.324219 L 13.957031 19.878906 L 5.902344 19.878906 C 4.589844 19.878906 3.394531 19.503906 2.320312 18.753906 L 2.320312 20.765625 C 2.324219 21.121094 2.390625 21.460938 2.527344 21.789062 C 2.664062 22.113281 2.859375 22.402344 3.109375 22.652344 C 3.359375 22.902344 3.652344 23.097656 3.980469 23.230469 C 4.308594 23.367188 4.652344 23.433594 5.007812 23.433594 L 24.699219 23.433594 C 25.058594 23.433594 25.398438 23.367188 25.726562 23.230469 C 26.058594 23.097656 26.347656 22.902344 26.597656 22.652344 C 26.851562 22.402344 27.042969 22.113281 27.179688 21.789062 C 27.316406 21.460938 27.386719 21.121094 27.386719 20.765625 L 27.386719 18.753906 C 26.3125 19.503906 25.117188 19.878906 23.804688 19.878906 Z M 15.75 19.878906 " fill-opacity="1" fill-rule="nonzero"/></g></svg>