<svg xmlns="http://www.w3.org/2000/svg" xmlns:xlink="http://www.w3.org/1999/xlink" width="40" zoomAndPan="magnify" viewBox="0 0 30 30.000001" height="40" preserveAspectRatio="xMidYMid meet" version="1.0"><defs><clipPath id="id1"><path d="M 9 25 L 16 25 L 16 28.070312 L 9 28.070312 Z M 9 25 " clip-rule="nonzero"/></clipPath><clipPath id="id2"><path d="M 15 25 L 22 25 L 22 28.070312 L 15 28.070312 Z M 15 25 " clip-rule="nonzero"/></clipPath><clipPath id="id3"><path d="M 8 1.214844 L 23 1.214844 L 23 24 L 8 24 Z M 8 1.214844 " clip-rule="nonzero"/></clipPath><clipPath id="id4"><path d="M 23 16 L 27.429688 16 L 27.429688 22 L 23 22 Z M 23 16 " clip-rule="nonzero"/></clipPath></defs><g clip-path="url(#id1)"><path fill="#040606" d="M 12.492188 25.160156 C 11.601562 25.160156 10.800781 25.460938 10.277344 25.9375 C 9.867188 26.300781 9.621094 26.769531 9.621094 27.28125 C 9.621094 27.5625 9.699219 27.828125 9.828125 28.070312 L 15.160156 28.070312 C 15.292969 27.828125 15.367188 27.5625 15.367188 27.28125 C 15.367188 26.878906 15.210938 26.5 14.945312 26.179688 C 14.441406 25.570312 13.53125 25.160156 12.492188 25.160156 " fill-opacity="1" fill-rule="nonzero"/></g><g clip-path="url(#id2)"><path fill="#040606" d="M 20.160156 25.621094 C 19.667969 25.335938 19.046875 25.160156 18.375 25.160156 C 17.277344 25.160156 16.324219 25.613281 15.839844 26.28125 C 15.625 26.578125 15.5 26.921875 15.5 27.28125 C 15.5 27.5625 15.578125 27.828125 15.710938 28.070312 L 21.039062 28.070312 C 21.171875 27.828125 21.246094 27.5625 21.246094 27.28125 C 21.246094 26.609375 20.820312 26.011719 20.160156 25.621094 " fill-opacity="1" fill-rule="nonzero"/></g><path fill="#040606" d="M 8.441406 12.863281 C 7.753906 12.875 7.070312 13.167969 6.582031 13.726562 L 4.460938 16.148438 L 7.875 19.949219 L 8.496094 19.242188 C 8.464844 19.050781 8.441406 18.859375 8.441406 18.664062 L 8.441406 12.863281 " fill-opacity="1" fill-rule="nonzero"/><path fill="#040606" d="M 23.453125 13.710938 C 23.125 13.363281 22.71875 13.128906 22.289062 13.007812 L 22.289062 18.664062 C 22.289062 19.027344 22.230469 19.378906 22.125 19.710938 L 22.613281 20.234375 L 25.558594 15.957031 L 23.453125 13.710938 " fill-opacity="1" fill-rule="nonzero"/><path fill="#040606" d="M 8.355469 10.5 L 8.355469 7.15625 C 8.355469 6.375 8.476562 5.707031 8.683594 5.125 L 8.574219 4.234375 C 8.835938 4.144531 9.023438 3.902344 9.023438 3.613281 C 9.023438 3.246094 8.722656 2.949219 8.355469 2.949219 C 7.992188 2.949219 7.691406 3.246094 7.691406 3.613281 C 7.691406 3.945312 7.9375 4.21875 8.257812 4.265625 L 7.976562 5.957031 C 7.742188 6.109375 7.589844 6.375 7.589844 6.671875 L 7.589844 9.652344 C 7.589844 10.09375 7.925781 10.453125 8.355469 10.5 " fill-opacity="1" fill-rule="nonzero"/><path fill="#040606" d="M 22.40625 7.15625 L 22.40625 10.507812 C 22.878906 10.507812 23.265625 10.125 23.265625 9.652344 L 23.265625 6.671875 C 23.265625 6.335938 23.066406 6.042969 22.777344 5.90625 L 22.503906 4.265625 C 22.824219 4.21875 23.070312 3.945312 23.070312 3.613281 C 23.070312 3.246094 22.773438 2.949219 22.40625 2.949219 C 22.039062 2.949219 21.742188 3.246094 21.742188 3.613281 C 21.742188 3.902344 21.929688 4.144531 22.1875 4.234375 L 22.085938 5.082031 C 22.289062 5.671875 22.40625 6.355469 22.40625 7.15625 " fill-opacity="1" fill-rule="nonzero"/><g clip-path="url(#id3)"><path fill="#040606" d="M 21.742188 17.207031 L 18.804688 17.207031 L 18.804688 16.277344 L 21.742188 16.277344 Z M 18.628906 16.148438 L 12.175781 16.148438 L 12.175781 14.910156 L 18.628906 14.910156 Z M 17.078125 16.742188 C 17.078125 16.484375 17.285156 16.273438 17.546875 16.273438 C 17.804688 16.273438 18.015625 16.484375 18.015625 16.742188 C 18.015625 17 17.804688 17.210938 17.546875 17.210938 C 17.285156 17.210938 17.078125 17 17.078125 16.742188 Z M 15.785156 16.742188 C 15.785156 16.484375 15.996094 16.273438 16.257812 16.273438 C 16.515625 16.273438 16.726562 16.484375 16.726562 16.742188 C 16.726562 17 16.515625 17.210938 16.257812 17.210938 C 15.996094 17.210938 15.785156 17 15.785156 16.742188 Z M 18.628906 18.574219 L 12.175781 18.574219 L 12.175781 17.335938 L 18.628906 17.335938 Z M 11.957031 17.207031 L 9.023438 17.207031 L 9.023438 16.277344 L 11.957031 16.277344 Z M 10.566406 8.035156 C 10.566406 4.96875 15.4375 5.03125 15.4375 5.03125 C 15.4375 5.03125 20.164062 5.089844 20.164062 8.035156 L 20.164062 10.527344 C 20.164062 12.183594 18.714844 13.53125 16.921875 13.53125 L 13.8125 13.53125 C 12.019531 13.53125 10.566406 12.183594 10.566406 10.527344 Z M 22.054688 13.007812 L 22.054688 7.15625 C 22.054688 6.355469 21.933594 5.671875 21.734375 5.082031 C 20.414062 1.214844 15.4375 1.496094 15.4375 1.496094 C 15.4375 1.496094 10.347656 1.304688 9.003906 5.125 C 8.796875 5.707031 8.679688 6.375 8.679688 7.15625 L 8.679688 18.664062 C 8.679688 18.859375 8.699219 19.050781 8.730469 19.242188 C 8.824219 19.808594 9.054688 20.332031 9.390625 20.785156 C 9.585938 21.84375 9.882812 23.414062 9.882812 23.414062 L 14.929688 23.414062 L 14.921875 22.425781 L 15.820312 22.425781 L 15.828125 23.414062 L 20.417969 23.414062 C 20.511719 22.761719 20.605469 22.074219 20.683594 21.476562 C 21.25 21.011719 21.671875 20.402344 21.890625 19.710938 C 21.996094 19.378906 22.054688 19.027344 22.054688 18.664062 L 22.054688 17.335938 L 22.074219 17.335938 L 22.074219 16.148438 L 22.054688 16.148438 L 22.054688 13.007812 " fill-opacity="1" fill-rule="nonzero"/></g><path fill="#040606" d="M 12.492188 24.730469 C 13.53125 24.730469 14.441406 25.136719 14.945312 25.746094 L 14.933594 24.105469 L 10.011719 24.105469 C 10.117188 24.660156 10.210938 25.160156 10.277344 25.503906 C 10.800781 25.03125 11.601562 24.730469 12.492188 24.730469 " fill-opacity="1" fill-rule="nonzero"/><path fill="#040606" d="M 12.722656 8.957031 C 13.335938 8.957031 13.835938 8.457031 13.835938 7.84375 C 13.835938 7.226562 13.335938 6.726562 12.722656 6.726562 C 12.105469 6.726562 11.605469 7.226562 11.605469 7.84375 C 11.605469 8.457031 12.105469 8.957031 12.722656 8.957031 " fill-opacity="1" fill-rule="nonzero"/><g clip-path="url(#id4)"><path fill="#040606" d="M 26.46875 16.929688 L 25.9375 16.359375 L 23.007812 20.617188 C 23.980469 21.414062 25.410156 21.390625 26.351562 20.511719 C 27.375 19.554688 27.425781 17.949219 26.46875 16.929688 " fill-opacity="1" fill-rule="nonzero"/></g><path fill="#040606" d="M 3.675781 17.046875 C 2.753906 18.097656 2.863281 19.699219 3.917969 20.621094 C 4.972656 21.542969 6.578125 21.433594 7.5 20.378906 L 7.550781 20.320312 L 4.089844 16.574219 L 3.675781 17.046875 " fill-opacity="1" fill-rule="nonzero"/><path fill="#040606" d="M 18.375 24.730469 C 19.046875 24.730469 19.667969 24.902344 20.160156 25.191406 C 20.203125 24.882812 20.261719 24.507812 20.320312 24.09375 L 20.320312 24.105469 L 15.832031 24.105469 L 15.839844 25.851562 C 16.324219 25.183594 17.277344 24.730469 18.375 24.730469 " fill-opacity="1" fill-rule="nonzero"/></svg>