<svg width="33" height="36" viewBox="0 0 33 36" fill="none" xmlns="http://www.w3.org/2000/svg">
<path d="M7.07421 12.0113V7.55292C7.07421 6.51125 7.23567 5.62062 7.51171 4.84458L7.36587 3.65708C7.71483 3.53729 7.96483 3.21438 7.96483 2.82896C7.96483 2.33938 7.56379 1.94354 7.07421 1.94354C6.58983 1.94354 6.18879 2.33938 6.18879 2.82896C6.18879 3.27167 6.51692 3.63625 6.944 3.69875L6.569 5.95396C6.2565 6.15708 6.05338 6.51125 6.05338 6.90708V10.881C6.05338 11.4696 6.50129 11.9488 7.07421 12.0113Z" fill="#fff"/>
<path d="M12.8971 9.95396C13.7149 9.95396 14.3815 9.2873 14.3815 8.46959C14.3815 7.64667 13.7149 6.98 12.8971 6.98C12.0742 6.98 11.4076 7.64667 11.4076 8.46959C11.4076 9.2873 12.0742 9.95396 12.8971 9.95396Z" fill="#fff"/>
<path d="M12.5898 31.5581C11.4023 31.5581 10.3346 31.9592 9.63672 32.5946C9.08984 33.079 8.76172 33.704 8.76172 34.3863C8.76172 34.7613 8.86589 35.1154 9.03776 35.4383H16.1471C16.3242 35.1154 16.4232 34.7613 16.4232 34.3863C16.4232 33.8498 16.2148 33.3446 15.8607 32.9175C15.1888 32.105 13.9753 31.5581 12.5898 31.5581Z" fill="#fff"/>
<path d="M22.8138 32.1727C22.1575 31.7925 21.3294 31.5581 20.4336 31.5581C18.97 31.5581 17.6992 32.1623 17.0534 33.0529C16.7669 33.4488 16.6003 33.9071 16.6003 34.3863C16.6003 34.7613 16.7044 35.1154 16.8815 35.4383H23.9857C24.1628 35.1154 24.2617 34.7613 24.2617 34.3863C24.2617 33.4904 23.694 32.6935 22.8138 32.1727Z" fill="#fff"/>
<path d="M7.18879 15.1623C6.27212 15.1779 5.36067 15.5685 4.70962 16.3133L1.8815 19.5425L6.43358 24.6102L7.26171 23.6675C7.22004 23.4123 7.18879 23.1571 7.18879 22.8967V15.1623Z" fill="#fff"/>
<path d="M27.2044 16.2925C26.7669 15.829 26.2253 15.5165 25.6523 15.355V22.8967C25.6523 23.381 25.5742 23.8498 25.4336 24.2925L26.0846 24.9904L30.0117 19.2873L27.2044 16.2925Z" fill="#fff"/>
<path d="M25.8086 7.55292V12.0217C26.4388 12.0217 26.9544 11.5112 26.9544 10.881V6.90708C26.9544 6.45917 26.6888 6.06854 26.3034 5.88625L25.9388 3.69875C26.3659 3.63625 26.694 3.27167 26.694 2.82896C26.694 2.33938 26.2982 1.94354 25.8086 1.94354C25.319 1.94354 24.9232 2.33938 24.9232 2.82896C24.9232 3.21438 25.1732 3.53729 25.5169 3.65708L25.3815 4.78729C25.6523 5.57375 25.8086 6.48521 25.8086 7.55292Z" fill="#fff"/>
<path d="M24.9232 20.954H21.0065V19.7144H24.9232V20.954ZM20.7721 19.5425H12.168V17.8915H20.7721V19.5425ZM18.7044 20.3342C18.7044 19.9904 18.9805 19.7092 19.3294 19.7092C19.6732 19.7092 19.9544 19.9904 19.9544 20.3342C19.9544 20.6779 19.6732 20.9592 19.3294 20.9592C18.9805 20.9592 18.7044 20.6779 18.7044 20.3342ZM16.9805 20.3342C16.9805 19.9904 17.2617 19.7092 17.6107 19.7092C17.9544 19.7092 18.2357 19.9904 18.2357 20.3342C18.2357 20.6779 17.9544 20.9592 17.6107 20.9592C17.2617 20.9592 16.9805 20.6779 16.9805 20.3342ZM20.7721 22.7769H12.168V21.1258H20.7721V22.7769ZM11.8763 20.954H7.96483V19.7144H11.8763V20.954ZM10.0221 8.7248C10.0221 4.63625 16.5169 4.71959 16.5169 4.71959C16.5169 4.71959 22.819 4.79771 22.819 8.7248V12.0477C22.819 14.256 20.8867 16.0529 18.4961 16.0529H14.3502C11.9596 16.0529 10.0221 14.256 10.0221 12.0477V8.7248ZM25.3398 15.355V7.55292C25.3398 6.48521 25.1784 5.57375 24.9127 4.7873C23.1523 -0.368953 16.5169 0.00604688 16.5169 0.00604688C16.5169 0.00604688 9.73046 -0.249161 7.93879 4.84459C7.66275 5.62063 7.5065 6.51125 7.5065 7.55292V22.8967C7.5065 23.1571 7.53254 23.4123 7.57421 23.6675C7.69921 24.4227 8.0065 25.1206 8.45442 25.7248C8.71483 27.1363 9.11066 29.23 9.11066 29.23H15.8398L15.8294 27.9123H17.0273L17.0377 29.23H23.1575C23.2825 28.3602 23.4075 27.4435 23.5117 26.6467C24.2669 26.0269 24.8294 25.2144 25.1211 24.2925C25.2617 23.8498 25.3398 23.381 25.3398 22.8967V21.1258H25.3659V19.5425H25.3398V15.355Z" fill="#fff"/>
<path d="M12.5899 30.9852C13.9753 30.9852 15.1888 31.5269 15.8607 32.3394L15.8451 30.1519H9.28256C9.42319 30.8915 9.54819 31.5581 9.63673 32.0165C10.3346 31.3863 11.4024 30.9852 12.5899 30.9852Z" fill="#fff"/>
<path d="M31.2252 20.5842L30.5169 19.8238L26.6107 25.5008C27.9075 26.5633 29.8138 26.5321 31.069 25.3602C32.4336 24.0842 32.5013 21.9435 31.2252 20.5842Z" fill="#fff"/>
<path d="M0.834629 20.7404C-0.394538 22.1415 -0.248704 24.2769 1.15755 25.506C2.5638 26.7352 4.70442 26.5894 5.93359 25.1831L6.0013 25.105L1.38671 20.1102L0.834629 20.7404Z" fill="#fff"/>
<path d="M20.4336 30.9852C21.3294 30.9852 22.1576 31.2144 22.8138 31.5998C22.8711 31.1883 22.9492 30.6883 23.0273 30.1363V30.1519H17.043L17.0534 32.48C17.6992 31.5894 18.9701 30.9852 20.4336 30.9852Z" fill="#fff"/>
</svg>
